<?xml version="1.0" encoding="UTF-8" standalone="no"?>
<!DOCTYPE svg PUBLIC "-//W3C//DTD SVG 1.1//EN" "http://www.w3.org/Graphics/SVG/1.1/DTD/svg11.dtd">
<svg width="100%" height="100%" viewBox="0 0 1275 225" version="1.1" xmlns="http://www.w3.org/2000/svg" xmlns:xlink="http://www.w3.org/1999/xlink" xml:space="preserve" xmlns:serif="http://www.serif.com/" style="fill-rule:evenodd;clip-rule:evenodd;stroke-linejoin:round;stroke-miterlimit:2;">
    <g transform="matrix(1,0,0,0.272727,0,0)">
        <rect id="Logo" x="0" y="0" width="1275" height="825" style="fill:none;"/>
        <g id="Logo1" serif:id="Logo">
            <g transform="matrix(1,0,0,3.66667,-507.88,-625.027)">
                <g transform="matrix(175,0,0,175,534.936,316.569)">
                    <path d="M0.386,-0.227C0.38,-0.227 0.375,-0.225 0.371,-0.221C0.366,-0.216 0.364,-0.211 0.364,-0.205L0.364,-0.136L0.136,-0.136L0.136,-0.364L0.364,-0.364L0.364,-0.295C0.364,-0.289 0.366,-0.284 0.371,-0.28C0.375,-0.275 0.38,-0.273 0.386,-0.273L0.477,-0.273C0.484,-0.273 0.489,-0.275 0.494,-0.28C0.498,-0.284 0.5,-0.289 0.5,-0.295L0.5,-0.477C0.5,-0.484 0.498,-0.489 0.494,-0.494C0.489,-0.498 0.484,-0.5 0.477,-0.5L0.023,-0.5C0.016,-0.5 0.011,-0.498 0.007,-0.494C0.002,-0.489 0,-0.484 0,-0.477L0,-0.023C0,-0.016 0.002,-0.011 0.007,-0.007C0.011,-0.002 0.016,-0 0.023,-0L0.477,-0C0.484,-0 0.489,-0.002 0.494,-0.007C0.498,-0.011 0.5,-0.016 0.5,-0.023L0.5,-0.205C0.5,-0.211 0.498,-0.216 0.494,-0.221C0.489,-0.225 0.484,-0.227 0.477,-0.227L0.386,-0.227Z" style="fill:rgb(241,188,71);fill-rule:nonzero;"/>
                </g>
                <g transform="matrix(175,0,0,175,630.311,316.569)">
                    <path d="M0.289,-0L0.378,-0C0.384,-0 0.389,-0.002 0.394,-0.007C0.398,-0.011 0.4,-0.016 0.4,-0.023L0.4,-0.49C0.4,-0.497 0.398,-0.502 0.394,-0.507C0.389,-0.511 0.384,-0.513 0.378,-0.513L0.133,-0.513L0.133,-0.677C0.133,-0.684 0.131,-0.689 0.127,-0.694C0.123,-0.698 0.118,-0.7 0.111,-0.7L0.022,-0.7C0.016,-0.7 0.011,-0.698 0.007,-0.694C0.002,-0.689 0,-0.684 0,-0.677L0,-0.023C0,-0.016 0.002,-0.011 0.007,-0.007C0.011,-0.002 0.016,-0 0.022,-0L0.111,-0C0.118,-0 0.123,-0.002 0.127,-0.007C0.131,-0.011 0.133,-0.016 0.133,-0.023L0.133,-0.373L0.267,-0.373L0.267,-0.023C0.267,-0.016 0.269,-0.011 0.273,-0.007C0.277,-0.002 0.282,-0 0.289,-0Z" style="fill:rgb(241,188,71);fill-rule:nonzero;"/>
                </g>
                <g transform="matrix(175,0,0,175,708.011,316.569)">
                    <path d="M0.386,-0.5L0.114,-0.5C0.107,-0.5 0.102,-0.498 0.098,-0.494C0.093,-0.489 0.091,-0.484 0.091,-0.477L0.091,-0.386C0.091,-0.38 0.093,-0.375 0.098,-0.371C0.102,-0.366 0.107,-0.364 0.114,-0.364L0.273,-0.364L0.273,-0.318L0.023,-0.318C0.016,-0.318 0.011,-0.316 0.007,-0.312C0.002,-0.307 0,-0.302 0,-0.295L0,-0.023C0,-0.016 0.002,-0.011 0.007,-0.007C0.011,-0.002 0.016,-0 0.023,-0L0.477,-0C0.484,-0 0.489,-0.002 0.494,-0.007C0.498,-0.011 0.5,-0.016 0.5,-0.023L0.5,-0.114C0.5,-0.12 0.498,-0.125 0.494,-0.13C0.489,-0.134 0.484,-0.136 0.477,-0.136L0.409,-0.136L0.409,-0.477C0.409,-0.484 0.407,-0.489 0.403,-0.494C0.398,-0.498 0.393,-0.5 0.386,-0.5ZM0.136,-0.182L0.273,-0.182L0.273,-0.136L0.136,-0.136L0.136,-0.182Z" style="fill:rgb(241,188,71);fill-rule:nonzero;"/>
                </g>
                <g transform="matrix(175,0,0,175,803.386,316.569)">
                    <path d="M0.023,-0.5C0.016,-0.5 0.011,-0.498 0.007,-0.494C0.002,-0.489 0,-0.484 0,-0.477L0,-0.023C0,-0.016 0.002,-0.011 0.007,-0.007C0.011,-0.002 0.016,-0 0.023,-0L0.477,-0C0.484,-0 0.489,-0.002 0.494,-0.007C0.498,-0.011 0.5,-0.016 0.5,-0.023L0.5,-0.477C0.5,-0.484 0.498,-0.489 0.494,-0.494C0.489,-0.498 0.484,-0.5 0.477,-0.5L0.023,-0.5ZM0.136,-0.364L0.364,-0.364L0.364,-0.136L0.136,-0.136L0.136,-0.364Z" style="fill:rgb(241,188,71);fill-rule:nonzero;"/>
                </g>
                <g transform="matrix(175,0,0,175,898.761,316.569)">
                    <path d="M0,-0.114L0,-0.023C0,-0.016 0.002,-0.011 0.007,-0.007C0.011,-0.002 0.016,-0 0.023,-0L0.477,-0C0.484,-0 0.489,-0.002 0.494,-0.007C0.498,-0.011 0.5,-0.016 0.5,-0.023L0.5,-0.295C0.5,-0.302 0.498,-0.307 0.494,-0.312C0.489,-0.316 0.484,-0.318 0.477,-0.318L0.136,-0.318L0.136,-0.364L0.477,-0.364C0.484,-0.364 0.489,-0.366 0.494,-0.371C0.498,-0.375 0.5,-0.38 0.5,-0.386L0.5,-0.477C0.5,-0.484 0.498,-0.489 0.494,-0.494C0.489,-0.498 0.484,-0.5 0.477,-0.5L0.023,-0.5C0.016,-0.5 0.011,-0.498 0.007,-0.494C0.002,-0.489 0,-0.484 0,-0.477L0,-0.205C0,-0.198 0.002,-0.193 0.007,-0.189C0.011,-0.184 0.016,-0.182 0.023,-0.182L0.364,-0.182L0.364,-0.136L0.023,-0.136C0.016,-0.136 0.011,-0.134 0.007,-0.13C0.002,-0.125 0,-0.12 0,-0.114Z" style="fill:rgb(241,188,71);fill-rule:nonzero;"/>
                </g>
                <g transform="matrix(175,0,0,175,1081.64,316.569)">
                    <path d="M0.111,-0.711C0.105,-0.711 0.1,-0.709 0.096,-0.704C0.091,-0.699 0.089,-0.694 0.089,-0.687L0.089,-0.521L0.022,-0.521C0.016,-0.521 0.011,-0.519 0.007,-0.515C0.002,-0.51 0,-0.504 0,-0.497L0,-0.403C0,-0.396 0.002,-0.39 0.007,-0.386C0.011,-0.381 0.016,-0.379 0.022,-0.379L0.089,-0.379L0.089,0.166C0.089,0.173 0.091,0.178 0.096,0.183C0.1,0.187 0.105,0.189 0.111,0.189L0.2,0.189C0.206,0.189 0.211,0.187 0.216,0.183C0.22,0.178 0.222,0.173 0.222,0.166L0.222,-0.379L0.378,-0.379C0.384,-0.379 0.389,-0.381 0.394,-0.386C0.398,-0.39 0.4,-0.396 0.4,-0.403L0.4,-0.497C0.4,-0.504 0.398,-0.51 0.394,-0.515C0.389,-0.519 0.384,-0.521 0.378,-0.521L0.222,-0.521L0.222,-0.568L0.378,-0.568C0.384,-0.568 0.389,-0.57 0.394,-0.575C0.398,-0.58 0.4,-0.585 0.4,-0.592L0.4,-0.687C0.4,-0.694 0.398,-0.699 0.394,-0.704C0.389,-0.709 0.384,-0.711 0.378,-0.711L0.111,-0.711Z" style="fill:rgb(241,188,71);fill-rule:nonzero;"/>
                </g>
                <g transform="matrix(175,0,0,175,1159.34,316.569)">
                    <path d="M0.114,-0.513C0.107,-0.513 0.102,-0.511 0.098,-0.507C0.093,-0.502 0.091,-0.497 0.091,-0.49L0.091,-0.397C0.091,-0.39 0.093,-0.385 0.098,-0.38C0.102,-0.375 0.107,-0.373 0.114,-0.373L0.182,-0.373L0.182,-0.14L0.023,-0.14C0.016,-0.14 0.011,-0.138 0.007,-0.134C0.002,-0.129 0,-0.124 0,-0.117L0,-0.023C0,-0.016 0.002,-0.011 0.007,-0.007C0.011,-0.002 0.016,-0 0.023,-0L0.477,-0C0.484,-0 0.489,-0.002 0.494,-0.007C0.498,-0.011 0.5,-0.016 0.5,-0.023L0.5,-0.117C0.5,-0.124 0.498,-0.129 0.494,-0.134C0.489,-0.138 0.484,-0.14 0.477,-0.14L0.318,-0.14L0.318,-0.49C0.318,-0.497 0.316,-0.502 0.312,-0.507C0.307,-0.511 0.302,-0.513 0.295,-0.513L0.114,-0.513ZM0.205,-0.7C0.198,-0.7 0.193,-0.698 0.189,-0.694C0.184,-0.689 0.182,-0.684 0.182,-0.677L0.182,-0.583C0.182,-0.576 0.184,-0.571 0.189,-0.567C0.193,-0.562 0.198,-0.56 0.205,-0.56L0.295,-0.56C0.302,-0.56 0.307,-0.562 0.312,-0.567C0.316,-0.571 0.318,-0.576 0.318,-0.583L0.318,-0.677C0.318,-0.684 0.316,-0.689 0.312,-0.694C0.307,-0.698 0.302,-0.7 0.295,-0.7L0.205,-0.7Z" style="fill:rgb(241,188,71);fill-rule:nonzero;"/>
                </g>
                <g transform="matrix(175,0,0,175,1254.71,316.569)">
                    <path d="M0.386,-0.227C0.38,-0.227 0.375,-0.225 0.371,-0.221C0.366,-0.216 0.364,-0.211 0.364,-0.205L0.364,-0.136L0.136,-0.136L0.136,-0.364L0.364,-0.364L0.364,-0.295C0.364,-0.289 0.366,-0.284 0.371,-0.28C0.375,-0.275 0.38,-0.273 0.386,-0.273L0.477,-0.273C0.484,-0.273 0.489,-0.275 0.494,-0.28C0.498,-0.284 0.5,-0.289 0.5,-0.295L0.5,-0.477C0.5,-0.484 0.498,-0.489 0.494,-0.494C0.489,-0.498 0.484,-0.5 0.477,-0.5L0.023,-0.5C0.016,-0.5 0.011,-0.498 0.007,-0.494C0.002,-0.489 0,-0.484 0,-0.477L0,-0.023C0,-0.016 0.002,-0.011 0.007,-0.007C0.011,-0.002 0.016,-0 0.023,-0L0.477,-0C0.484,-0 0.489,-0.002 0.494,-0.007C0.498,-0.011 0.5,-0.016 0.5,-0.023L0.5,-0.205C0.5,-0.211 0.498,-0.216 0.494,-0.221C0.489,-0.225 0.484,-0.227 0.477,-0.227L0.386,-0.227Z" style="fill:rgb(241,188,71);fill-rule:nonzero;"/>
                </g>
                <g transform="matrix(175,0,0,175,1350.09,316.569)">
                    <path d="M0.114,-0.7C0.107,-0.7 0.102,-0.698 0.098,-0.694C0.093,-0.689 0.091,-0.684 0.091,-0.677L0.091,-0.513L0.023,-0.513C0.016,-0.513 0.011,-0.511 0.007,-0.507C0.002,-0.502 0,-0.497 0,-0.49L0,-0.397C0,-0.39 0.002,-0.385 0.007,-0.38C0.011,-0.375 0.016,-0.373 0.023,-0.373L0.091,-0.373L0.091,-0.023C0.091,-0.016 0.093,-0.011 0.098,-0.007C0.102,-0.002 0.107,-0 0.114,-0L0.477,-0C0.484,-0 0.489,-0.002 0.494,-0.007C0.498,-0.011 0.5,-0.016 0.5,-0.023L0.5,-0.117C0.5,-0.124 0.498,-0.129 0.494,-0.134C0.489,-0.138 0.484,-0.14 0.477,-0.14L0.227,-0.14L0.227,-0.373L0.386,-0.373C0.393,-0.373 0.398,-0.375 0.403,-0.38C0.407,-0.385 0.409,-0.39 0.409,-0.397L0.409,-0.49C0.409,-0.497 0.407,-0.502 0.403,-0.507C0.398,-0.511 0.393,-0.513 0.386,-0.513L0.227,-0.513L0.227,-0.677C0.227,-0.684 0.225,-0.689 0.221,-0.694C0.216,-0.698 0.211,-0.7 0.205,-0.7L0.114,-0.7Z" style="fill:rgb(241,188,71);fill-rule:nonzero;"/>
                </g>
                <g transform="matrix(175,0,0,175,1445.46,316.569)">
                    <path d="M0.114,-0.513C0.107,-0.513 0.102,-0.511 0.098,-0.507C0.093,-0.502 0.091,-0.497 0.091,-0.49L0.091,-0.397C0.091,-0.39 0.093,-0.385 0.098,-0.38C0.102,-0.375 0.107,-0.373 0.114,-0.373L0.182,-0.373L0.182,-0.14L0.023,-0.14C0.016,-0.14 0.011,-0.138 0.007,-0.134C0.002,-0.129 0,-0.124 0,-0.117L0,-0.023C0,-0.016 0.002,-0.011 0.007,-0.007C0.011,-0.002 0.016,-0 0.023,-0L0.477,-0C0.484,-0 0.489,-0.002 0.494,-0.007C0.498,-0.011 0.5,-0.016 0.5,-0.023L0.5,-0.117C0.5,-0.124 0.498,-0.129 0.494,-0.134C0.489,-0.138 0.484,-0.14 0.477,-0.14L0.318,-0.14L0.318,-0.49C0.318,-0.497 0.316,-0.502 0.312,-0.507C0.307,-0.511 0.302,-0.513 0.295,-0.513L0.114,-0.513ZM0.205,-0.7C0.198,-0.7 0.193,-0.698 0.189,-0.694C0.184,-0.689 0.182,-0.684 0.182,-0.677L0.182,-0.583C0.182,-0.576 0.184,-0.571 0.189,-0.567C0.193,-0.562 0.198,-0.56 0.205,-0.56L0.295,-0.56C0.302,-0.56 0.307,-0.562 0.312,-0.567C0.316,-0.571 0.318,-0.576 0.318,-0.583L0.318,-0.677C0.318,-0.684 0.316,-0.689 0.312,-0.694C0.307,-0.698 0.302,-0.7 0.295,-0.7L0.205,-0.7Z" style="fill:rgb(241,188,71);fill-rule:nonzero;"/>
                </g>
                <g transform="matrix(175,0,0,175,1540.84,316.569)">
                    <path d="M0.023,-0.5C0.016,-0.5 0.011,-0.498 0.007,-0.494C0.002,-0.489 0,-0.484 0,-0.477L0,-0.023C0,-0.016 0.002,-0.011 0.007,-0.007C0.011,-0.002 0.016,-0 0.023,-0L0.477,-0C0.484,-0 0.489,-0.002 0.494,-0.007C0.498,-0.011 0.5,-0.016 0.5,-0.023L0.5,-0.477C0.5,-0.484 0.498,-0.489 0.494,-0.494C0.489,-0.498 0.484,-0.5 0.477,-0.5L0.023,-0.5ZM0.136,-0.364L0.364,-0.364L0.364,-0.136L0.136,-0.136L0.136,-0.364Z" style="fill:rgb(241,188,71);fill-rule:nonzero;"/>
                </g>
                <g transform="matrix(175,0,0,175,1636.21,316.569)">
                    <path d="M0.386,-0L0.477,-0C0.484,-0 0.489,-0.002 0.494,-0.007C0.498,-0.011 0.5,-0.016 0.5,-0.023L0.5,-0.477C0.5,-0.484 0.498,-0.489 0.494,-0.494C0.489,-0.498 0.484,-0.5 0.477,-0.5L0.023,-0.5C0.016,-0.5 0.011,-0.498 0.007,-0.494C0.002,-0.489 0,-0.484 0,-0.477L0,-0.386C0,-0.38 0.002,-0.375 0.007,-0.371C0.011,-0.366 0.016,-0.364 0.023,-0.364L0.091,-0.364L0.091,-0.023C0.091,-0.016 0.093,-0.011 0.098,-0.007C0.102,-0.002 0.107,-0 0.114,-0L0.205,-0C0.211,-0 0.216,-0.002 0.221,-0.007C0.225,-0.011 0.227,-0.016 0.227,-0.023L0.227,-0.364L0.364,-0.364L0.364,-0.023C0.364,-0.016 0.366,-0.011 0.371,-0.007C0.375,-0.002 0.38,-0 0.386,-0Z" style="fill:rgb(241,188,71);fill-rule:nonzero;"/>
                </g>
            </g>
            <g transform="matrix(1,0,0,3.66667,-492.904,-577.456)">
                <g transform="matrix(175,0,0,175,534.936,316.569)">
                    <path d="M0.386,-0.227C0.38,-0.227 0.375,-0.225 0.371,-0.221C0.366,-0.216 0.364,-0.211 0.364,-0.205L0.364,-0.136L0.136,-0.136L0.136,-0.364L0.364,-0.364L0.364,-0.295C0.364,-0.289 0.366,-0.284 0.371,-0.28C0.375,-0.275 0.38,-0.273 0.386,-0.273L0.477,-0.273C0.484,-0.273 0.489,-0.275 0.494,-0.28C0.498,-0.284 0.5,-0.289 0.5,-0.295L0.5,-0.477C0.5,-0.484 0.498,-0.489 0.494,-0.494C0.489,-0.498 0.484,-0.5 0.477,-0.5L0.023,-0.5C0.016,-0.5 0.011,-0.498 0.007,-0.494C0.002,-0.489 0,-0.484 0,-0.477L0,-0.023C0,-0.016 0.002,-0.011 0.007,-0.007C0.011,-0.002 0.016,-0 0.023,-0L0.477,-0C0.484,-0 0.489,-0.002 0.494,-0.007C0.498,-0.011 0.5,-0.016 0.5,-0.023L0.5,-0.205C0.5,-0.211 0.498,-0.216 0.494,-0.221C0.489,-0.225 0.484,-0.227 0.477,-0.227L0.386,-0.227Z" style="fill:rgb(204,50,97);fill-rule:nonzero;"/>
                </g>
                <g transform="matrix(175,0,0,175,630.311,316.569)">
                    <path d="M0.289,-0L0.378,-0C0.384,-0 0.389,-0.002 0.394,-0.007C0.398,-0.011 0.4,-0.016 0.4,-0.023L0.4,-0.49C0.4,-0.497 0.398,-0.502 0.394,-0.507C0.389,-0.511 0.384,-0.513 0.378,-0.513L0.133,-0.513L0.133,-0.677C0.133,-0.684 0.131,-0.689 0.127,-0.694C0.123,-0.698 0.118,-0.7 0.111,-0.7L0.022,-0.7C0.016,-0.7 0.011,-0.698 0.007,-0.694C0.002,-0.689 0,-0.684 0,-0.677L0,-0.023C0,-0.016 0.002,-0.011 0.007,-0.007C0.011,-0.002 0.016,-0 0.022,-0L0.111,-0C0.118,-0 0.123,-0.002 0.127,-0.007C0.131,-0.011 0.133,-0.016 0.133,-0.023L0.133,-0.373L0.267,-0.373L0.267,-0.023C0.267,-0.016 0.269,-0.011 0.273,-0.007C0.277,-0.002 0.282,-0 0.289,-0Z" style="fill:rgb(204,50,97);fill-rule:nonzero;"/>
                </g>
                <g transform="matrix(175,0,0,175,708.011,316.569)">
                    <path d="M0.386,-0.5L0.114,-0.5C0.107,-0.5 0.102,-0.498 0.098,-0.494C0.093,-0.489 0.091,-0.484 0.091,-0.477L0.091,-0.386C0.091,-0.38 0.093,-0.375 0.098,-0.371C0.102,-0.366 0.107,-0.364 0.114,-0.364L0.273,-0.364L0.273,-0.318L0.023,-0.318C0.016,-0.318 0.011,-0.316 0.007,-0.312C0.002,-0.307 0,-0.302 0,-0.295L0,-0.023C0,-0.016 0.002,-0.011 0.007,-0.007C0.011,-0.002 0.016,-0 0.023,-0L0.477,-0C0.484,-0 0.489,-0.002 0.494,-0.007C0.498,-0.011 0.5,-0.016 0.5,-0.023L0.5,-0.114C0.5,-0.12 0.498,-0.125 0.494,-0.13C0.489,-0.134 0.484,-0.136 0.477,-0.136L0.409,-0.136L0.409,-0.477C0.409,-0.484 0.407,-0.489 0.403,-0.494C0.398,-0.498 0.393,-0.5 0.386,-0.5ZM0.136,-0.182L0.273,-0.182L0.273,-0.136L0.136,-0.136L0.136,-0.182Z" style="fill:rgb(204,50,97);fill-rule:nonzero;"/>
                </g>
                <g transform="matrix(175,0,0,175,803.386,316.569)">
                    <path d="M0.023,-0.5C0.016,-0.5 0.011,-0.498 0.007,-0.494C0.002,-0.489 0,-0.484 0,-0.477L0,-0.023C0,-0.016 0.002,-0.011 0.007,-0.007C0.011,-0.002 0.016,-0 0.023,-0L0.477,-0C0.484,-0 0.489,-0.002 0.494,-0.007C0.498,-0.011 0.5,-0.016 0.5,-0.023L0.5,-0.477C0.5,-0.484 0.498,-0.489 0.494,-0.494C0.489,-0.498 0.484,-0.5 0.477,-0.5L0.023,-0.5ZM0.136,-0.364L0.364,-0.364L0.364,-0.136L0.136,-0.136L0.136,-0.364Z" style="fill:rgb(204,50,97);fill-rule:nonzero;"/>
                </g>
                <g transform="matrix(175,0,0,175,898.761,316.569)">
                    <path d="M0,-0.114L0,-0.023C0,-0.016 0.002,-0.011 0.007,-0.007C0.011,-0.002 0.016,-0 0.023,-0L0.477,-0C0.484,-0 0.489,-0.002 0.494,-0.007C0.498,-0.011 0.5,-0.016 0.5,-0.023L0.5,-0.295C0.5,-0.302 0.498,-0.307 0.494,-0.312C0.489,-0.316 0.484,-0.318 0.477,-0.318L0.136,-0.318L0.136,-0.364L0.477,-0.364C0.484,-0.364 0.489,-0.366 0.494,-0.371C0.498,-0.375 0.5,-0.38 0.5,-0.386L0.5,-0.477C0.5,-0.484 0.498,-0.489 0.494,-0.494C0.489,-0.498 0.484,-0.5 0.477,-0.5L0.023,-0.5C0.016,-0.5 0.011,-0.498 0.007,-0.494C0.002,-0.489 0,-0.484 0,-0.477L0,-0.205C0,-0.198 0.002,-0.193 0.007,-0.189C0.011,-0.184 0.016,-0.182 0.023,-0.182L0.364,-0.182L0.364,-0.136L0.023,-0.136C0.016,-0.136 0.011,-0.134 0.007,-0.13C0.002,-0.125 0,-0.12 0,-0.114Z" style="fill:rgb(204,50,97);fill-rule:nonzero;"/>
                </g>
                <g transform="matrix(175,0,0,175,1081.64,316.569)">
                    <path d="M0.111,-0.711C0.105,-0.711 0.1,-0.709 0.096,-0.704C0.091,-0.699 0.089,-0.694 0.089,-0.687L0.089,-0.521L0.022,-0.521C0.016,-0.521 0.011,-0.519 0.007,-0.515C0.002,-0.51 0,-0.504 0,-0.497L0,-0.403C0,-0.396 0.002,-0.39 0.007,-0.386C0.011,-0.381 0.016,-0.379 0.022,-0.379L0.089,-0.379L0.089,0.166C0.089,0.173 0.091,0.178 0.096,0.183C0.1,0.187 0.105,0.189 0.111,0.189L0.2,0.189C0.206,0.189 0.211,0.187 0.216,0.183C0.22,0.178 0.222,0.173 0.222,0.166L0.222,-0.379L0.378,-0.379C0.384,-0.379 0.389,-0.381 0.394,-0.386C0.398,-0.39 0.4,-0.396 0.4,-0.403L0.4,-0.497C0.4,-0.504 0.398,-0.51 0.394,-0.515C0.389,-0.519 0.384,-0.521 0.378,-0.521L0.222,-0.521L0.222,-0.568L0.378,-0.568C0.384,-0.568 0.389,-0.57 0.394,-0.575C0.398,-0.58 0.4,-0.585 0.4,-0.592L0.4,-0.687C0.4,-0.694 0.398,-0.699 0.394,-0.704C0.389,-0.709 0.384,-0.711 0.378,-0.711L0.111,-0.711Z" style="fill:rgb(204,50,97);fill-rule:nonzero;"/>
                </g>
                <g transform="matrix(175,0,0,175,1159.34,316.569)">
                    <path d="M0.114,-0.513C0.107,-0.513 0.102,-0.511 0.098,-0.507C0.093,-0.502 0.091,-0.497 0.091,-0.49L0.091,-0.397C0.091,-0.39 0.093,-0.385 0.098,-0.38C0.102,-0.375 0.107,-0.373 0.114,-0.373L0.182,-0.373L0.182,-0.14L0.023,-0.14C0.016,-0.14 0.011,-0.138 0.007,-0.134C0.002,-0.129 0,-0.124 0,-0.117L0,-0.023C0,-0.016 0.002,-0.011 0.007,-0.007C0.011,-0.002 0.016,-0 0.023,-0L0.477,-0C0.484,-0 0.489,-0.002 0.494,-0.007C0.498,-0.011 0.5,-0.016 0.5,-0.023L0.5,-0.117C0.5,-0.124 0.498,-0.129 0.494,-0.134C0.489,-0.138 0.484,-0.14 0.477,-0.14L0.318,-0.14L0.318,-0.49C0.318,-0.497 0.316,-0.502 0.312,-0.507C0.307,-0.511 0.302,-0.513 0.295,-0.513L0.114,-0.513ZM0.205,-0.7C0.198,-0.7 0.193,-0.698 0.189,-0.694C0.184,-0.689 0.182,-0.684 0.182,-0.677L0.182,-0.583C0.182,-0.576 0.184,-0.571 0.189,-0.567C0.193,-0.562 0.198,-0.56 0.205,-0.56L0.295,-0.56C0.302,-0.56 0.307,-0.562 0.312,-0.567C0.316,-0.571 0.318,-0.576 0.318,-0.583L0.318,-0.677C0.318,-0.684 0.316,-0.689 0.312,-0.694C0.307,-0.698 0.302,-0.7 0.295,-0.7L0.205,-0.7Z" style="fill:rgb(204,50,97);fill-rule:nonzero;"/>
                </g>
                <g transform="matrix(175,0,0,175,1254.71,316.569)">
                    <path d="M0.386,-0.227C0.38,-0.227 0.375,-0.225 0.371,-0.221C0.366,-0.216 0.364,-0.211 0.364,-0.205L0.364,-0.136L0.136,-0.136L0.136,-0.364L0.364,-0.364L0.364,-0.295C0.364,-0.289 0.366,-0.284 0.371,-0.28C0.375,-0.275 0.38,-0.273 0.386,-0.273L0.477,-0.273C0.484,-0.273 0.489,-0.275 0.494,-0.28C0.498,-0.284 0.5,-0.289 0.5,-0.295L0.5,-0.477C0.5,-0.484 0.498,-0.489 0.494,-0.494C0.489,-0.498 0.484,-0.5 0.477,-0.5L0.023,-0.5C0.016,-0.5 0.011,-0.498 0.007,-0.494C0.002,-0.489 0,-0.484 0,-0.477L0,-0.023C0,-0.016 0.002,-0.011 0.007,-0.007C0.011,-0.002 0.016,-0 0.023,-0L0.477,-0C0.484,-0 0.489,-0.002 0.494,-0.007C0.498,-0.011 0.5,-0.016 0.5,-0.023L0.5,-0.205C0.5,-0.211 0.498,-0.216 0.494,-0.221C0.489,-0.225 0.484,-0.227 0.477,-0.227L0.386,-0.227Z" style="fill:rgb(204,50,97);fill-rule:nonzero;"/>
                </g>
                <g transform="matrix(175,0,0,175,1350.09,316.569)">
                    <path d="M0.114,-0.7C0.107,-0.7 0.102,-0.698 0.098,-0.694C0.093,-0.689 0.091,-0.684 0.091,-0.677L0.091,-0.513L0.023,-0.513C0.016,-0.513 0.011,-0.511 0.007,-0.507C0.002,-0.502 0,-0.497 0,-0.49L0,-0.397C0,-0.39 0.002,-0.385 0.007,-0.38C0.011,-0.375 0.016,-0.373 0.023,-0.373L0.091,-0.373L0.091,-0.023C0.091,-0.016 0.093,-0.011 0.098,-0.007C0.102,-0.002 0.107,-0 0.114,-0L0.477,-0C0.484,-0 0.489,-0.002 0.494,-0.007C0.498,-0.011 0.5,-0.016 0.5,-0.023L0.5,-0.117C0.5,-0.124 0.498,-0.129 0.494,-0.134C0.489,-0.138 0.484,-0.14 0.477,-0.14L0.227,-0.14L0.227,-0.373L0.386,-0.373C0.393,-0.373 0.398,-0.375 0.403,-0.38C0.407,-0.385 0.409,-0.39 0.409,-0.397L0.409,-0.49C0.409,-0.497 0.407,-0.502 0.403,-0.507C0.398,-0.511 0.393,-0.513 0.386,-0.513L0.227,-0.513L0.227,-0.677C0.227,-0.684 0.225,-0.689 0.221,-0.694C0.216,-0.698 0.211,-0.7 0.205,-0.7L0.114,-0.7Z" style="fill:rgb(204,50,97);fill-rule:nonzero;"/>
                </g>
                <g transform="matrix(175,0,0,175,1445.46,316.569)">
                    <path d="M0.114,-0.513C0.107,-0.513 0.102,-0.511 0.098,-0.507C0.093,-0.502 0.091,-0.497 0.091,-0.49L0.091,-0.397C0.091,-0.39 0.093,-0.385 0.098,-0.38C0.102,-0.375 0.107,-0.373 0.114,-0.373L0.182,-0.373L0.182,-0.14L0.023,-0.14C0.016,-0.14 0.011,-0.138 0.007,-0.134C0.002,-0.129 0,-0.124 0,-0.117L0,-0.023C0,-0.016 0.002,-0.011 0.007,-0.007C0.011,-0.002 0.016,-0 0.023,-0L0.477,-0C0.484,-0 0.489,-0.002 0.494,-0.007C0.498,-0.011 0.5,-0.016 0.5,-0.023L0.5,-0.117C0.5,-0.124 0.498,-0.129 0.494,-0.134C0.489,-0.138 0.484,-0.14 0.477,-0.14L0.318,-0.14L0.318,-0.49C0.318,-0.497 0.316,-0.502 0.312,-0.507C0.307,-0.511 0.302,-0.513 0.295,-0.513L0.114,-0.513ZM0.205,-0.7C0.198,-0.7 0.193,-0.698 0.189,-0.694C0.184,-0.689 0.182,-0.684 0.182,-0.677L0.182,-0.583C0.182,-0.576 0.184,-0.571 0.189,-0.567C0.193,-0.562 0.198,-0.56 0.205,-0.56L0.295,-0.56C0.302,-0.56 0.307,-0.562 0.312,-0.567C0.316,-0.571 0.318,-0.576 0.318,-0.583L0.318,-0.677C0.318,-0.684 0.316,-0.689 0.312,-0.694C0.307,-0.698 0.302,-0.7 0.295,-0.7L0.205,-0.7Z" style="fill:rgb(204,50,97);fill-rule:nonzero;"/>
                </g>
                <g transform="matrix(175,0,0,175,1540.84,316.569)">
                    <path d="M0.023,-0.5C0.016,-0.5 0.011,-0.498 0.007,-0.494C0.002,-0.489 0,-0.484 0,-0.477L0,-0.023C0,-0.016 0.002,-0.011 0.007,-0.007C0.011,-0.002 0.016,-0 0.023,-0L0.477,-0C0.484,-0 0.489,-0.002 0.494,-0.007C0.498,-0.011 0.5,-0.016 0.5,-0.023L0.5,-0.477C0.5,-0.484 0.498,-0.489 0.494,-0.494C0.489,-0.498 0.484,-0.5 0.477,-0.5L0.023,-0.5ZM0.136,-0.364L0.364,-0.364L0.364,-0.136L0.136,-0.136L0.136,-0.364Z" style="fill:rgb(204,50,97);fill-rule:nonzero;"/>
                </g>
                <g transform="matrix(175,0,0,175,1636.21,316.569)">
                    <path d="M0.386,-0L0.477,-0C0.484,-0 0.489,-0.002 0.494,-0.007C0.498,-0.011 0.5,-0.016 0.5,-0.023L0.5,-0.477C0.5,-0.484 0.498,-0.489 0.494,-0.494C0.489,-0.498 0.484,-0.5 0.477,-0.5L0.023,-0.5C0.016,-0.5 0.011,-0.498 0.007,-0.494C0.002,-0.489 0,-0.484 0,-0.477L0,-0.386C0,-0.38 0.002,-0.375 0.007,-0.371C0.011,-0.366 0.016,-0.364 0.023,-0.364L0.091,-0.364L0.091,-0.023C0.091,-0.016 0.093,-0.011 0.098,-0.007C0.102,-0.002 0.107,-0 0.114,-0L0.205,-0C0.211,-0 0.216,-0.002 0.221,-0.007C0.225,-0.011 0.227,-0.016 0.227,-0.023L0.227,-0.364L0.364,-0.364L0.364,-0.023C0.364,-0.016 0.366,-0.011 0.371,-0.007C0.375,-0.002 0.38,-0 0.386,-0Z" style="fill:rgb(204,50,97);fill-rule:nonzero;"/>
                </g>
            </g>
            <g transform="matrix(1,0,0,3.66667,-475.767,-537.182)">
                <g transform="matrix(175,0,0,175,534.936,316.569)">
                    <path d="M0.386,-0.227C0.38,-0.227 0.375,-0.225 0.371,-0.221C0.366,-0.216 0.364,-0.211 0.364,-0.205L0.364,-0.136L0.136,-0.136L0.136,-0.364L0.364,-0.364L0.364,-0.295C0.364,-0.289 0.366,-0.284 0.371,-0.28C0.375,-0.275 0.38,-0.273 0.386,-0.273L0.477,-0.273C0.484,-0.273 0.489,-0.275 0.494,-0.28C0.498,-0.284 0.5,-0.289 0.5,-0.295L0.5,-0.477C0.5,-0.484 0.498,-0.489 0.494,-0.494C0.489,-0.498 0.484,-0.5 0.477,-0.5L0.023,-0.5C0.016,-0.5 0.011,-0.498 0.007,-0.494C0.002,-0.489 0,-0.484 0,-0.477L0,-0.023C0,-0.016 0.002,-0.011 0.007,-0.007C0.011,-0.002 0.016,-0 0.023,-0L0.477,-0C0.484,-0 0.489,-0.002 0.494,-0.007C0.498,-0.011 0.5,-0.016 0.5,-0.023L0.5,-0.205C0.5,-0.211 0.498,-0.216 0.494,-0.221C0.489,-0.225 0.484,-0.227 0.477,-0.227L0.386,-0.227Z" style="fill:rgb(87,183,177);fill-rule:nonzero;stroke:rgb(61,106,86);stroke-width:0.02px;"/>
                </g>
                <g transform="matrix(175,0,0,175,630.311,316.569)">
                    <path d="M0.289,-0L0.378,-0C0.384,-0 0.389,-0.002 0.394,-0.007C0.398,-0.011 0.4,-0.016 0.4,-0.023L0.4,-0.49C0.4,-0.497 0.398,-0.502 0.394,-0.507C0.389,-0.511 0.384,-0.513 0.378,-0.513L0.133,-0.513L0.133,-0.677C0.133,-0.684 0.131,-0.689 0.127,-0.694C0.123,-0.698 0.118,-0.7 0.111,-0.7L0.022,-0.7C0.016,-0.7 0.011,-0.698 0.007,-0.694C0.002,-0.689 0,-0.684 0,-0.677L0,-0.023C0,-0.016 0.002,-0.011 0.007,-0.007C0.011,-0.002 0.016,-0 0.022,-0L0.111,-0C0.118,-0 0.123,-0.002 0.127,-0.007C0.131,-0.011 0.133,-0.016 0.133,-0.023L0.133,-0.373L0.267,-0.373L0.267,-0.023C0.267,-0.016 0.269,-0.011 0.273,-0.007C0.277,-0.002 0.282,-0 0.289,-0Z" style="fill:rgb(87,183,177);fill-rule:nonzero;stroke:rgb(61,106,86);stroke-width:0.02px;"/>
                </g>
                <g transform="matrix(175,0,0,175,708.011,316.569)">
                    <path d="M0.386,-0.5L0.114,-0.5C0.107,-0.5 0.102,-0.498 0.098,-0.494C0.093,-0.489 0.091,-0.484 0.091,-0.477L0.091,-0.386C0.091,-0.38 0.093,-0.375 0.098,-0.371C0.102,-0.366 0.107,-0.364 0.114,-0.364L0.273,-0.364L0.273,-0.318L0.023,-0.318C0.016,-0.318 0.011,-0.316 0.007,-0.312C0.002,-0.307 0,-0.302 0,-0.295L0,-0.023C0,-0.016 0.002,-0.011 0.007,-0.007C0.011,-0.002 0.016,-0 0.023,-0L0.477,-0C0.484,-0 0.489,-0.002 0.494,-0.007C0.498,-0.011 0.5,-0.016 0.5,-0.023L0.5,-0.114C0.5,-0.12 0.498,-0.125 0.494,-0.13C0.489,-0.134 0.484,-0.136 0.477,-0.136L0.409,-0.136L0.409,-0.477C0.409,-0.484 0.407,-0.489 0.403,-0.494C0.398,-0.498 0.393,-0.5 0.386,-0.5ZM0.136,-0.182L0.273,-0.182L0.273,-0.136L0.136,-0.136L0.136,-0.182Z" style="fill:rgb(87,183,177);fill-rule:nonzero;stroke:rgb(61,106,86);stroke-width:0.02px;"/>
                </g>
                <g transform="matrix(175,0,0,175,803.386,316.569)">
                    <path d="M0.023,-0.5C0.016,-0.5 0.011,-0.498 0.007,-0.494C0.002,-0.489 0,-0.484 0,-0.477L0,-0.023C0,-0.016 0.002,-0.011 0.007,-0.007C0.011,-0.002 0.016,-0 0.023,-0L0.477,-0C0.484,-0 0.489,-0.002 0.494,-0.007C0.498,-0.011 0.5,-0.016 0.5,-0.023L0.5,-0.477C0.5,-0.484 0.498,-0.489 0.494,-0.494C0.489,-0.498 0.484,-0.5 0.477,-0.5L0.023,-0.5ZM0.136,-0.364L0.364,-0.364L0.364,-0.136L0.136,-0.136L0.136,-0.364Z" style="fill:rgb(87,183,177);fill-rule:nonzero;stroke:rgb(61,106,86);stroke-width:0.02px;"/>
                </g>
                <g transform="matrix(175,0,0,175,898.761,316.569)">
                    <path d="M0,-0.114L0,-0.023C0,-0.016 0.002,-0.011 0.007,-0.007C0.011,-0.002 0.016,-0 0.023,-0L0.477,-0C0.484,-0 0.489,-0.002 0.494,-0.007C0.498,-0.011 0.5,-0.016 0.5,-0.023L0.5,-0.295C0.5,-0.302 0.498,-0.307 0.494,-0.312C0.489,-0.316 0.484,-0.318 0.477,-0.318L0.136,-0.318L0.136,-0.364L0.477,-0.364C0.484,-0.364 0.489,-0.366 0.494,-0.371C0.498,-0.375 0.5,-0.38 0.5,-0.386L0.5,-0.477C0.5,-0.484 0.498,-0.489 0.494,-0.494C0.489,-0.498 0.484,-0.5 0.477,-0.5L0.023,-0.5C0.016,-0.5 0.011,-0.498 0.007,-0.494C0.002,-0.489 0,-0.484 0,-0.477L0,-0.205C0,-0.198 0.002,-0.193 0.007,-0.189C0.011,-0.184 0.016,-0.182 0.023,-0.182L0.364,-0.182L0.364,-0.136L0.023,-0.136C0.016,-0.136 0.011,-0.134 0.007,-0.13C0.002,-0.125 0,-0.12 0,-0.114Z" style="fill:rgb(87,183,177);fill-rule:nonzero;stroke:rgb(61,106,86);stroke-width:0.02px;"/>
                </g>
                <g transform="matrix(175,0,0,175,1081.64,316.569)">
                    <path d="M0.111,-0.711C0.105,-0.711 0.1,-0.709 0.096,-0.704C0.091,-0.699 0.089,-0.694 0.089,-0.687L0.089,-0.521L0.022,-0.521C0.016,-0.521 0.011,-0.519 0.007,-0.515C0.002,-0.51 0,-0.504 0,-0.497L0,-0.403C0,-0.396 0.002,-0.39 0.007,-0.386C0.011,-0.381 0.016,-0.379 0.022,-0.379L0.089,-0.379L0.089,0.166C0.089,0.173 0.091,0.178 0.096,0.183C0.1,0.187 0.105,0.189 0.111,0.189L0.2,0.189C0.206,0.189 0.211,0.187 0.216,0.183C0.22,0.178 0.222,0.173 0.222,0.166L0.222,-0.379L0.378,-0.379C0.384,-0.379 0.389,-0.381 0.394,-0.386C0.398,-0.39 0.4,-0.396 0.4,-0.403L0.4,-0.497C0.4,-0.504 0.398,-0.51 0.394,-0.515C0.389,-0.519 0.384,-0.521 0.378,-0.521L0.222,-0.521L0.222,-0.568L0.378,-0.568C0.384,-0.568 0.389,-0.57 0.394,-0.575C0.398,-0.58 0.4,-0.585 0.4,-0.592L0.4,-0.687C0.4,-0.694 0.398,-0.699 0.394,-0.704C0.389,-0.709 0.384,-0.711 0.378,-0.711L0.111,-0.711Z" style="fill:rgb(87,183,177);fill-rule:nonzero;stroke:rgb(61,106,86);stroke-width:0.02px;"/>
                </g>
                <g transform="matrix(175,0,0,175,1159.34,316.569)">
                    <path d="M0.114,-0.513C0.107,-0.513 0.102,-0.511 0.098,-0.507C0.093,-0.502 0.091,-0.497 0.091,-0.49L0.091,-0.397C0.091,-0.39 0.093,-0.385 0.098,-0.38C0.102,-0.375 0.107,-0.373 0.114,-0.373L0.182,-0.373L0.182,-0.14L0.023,-0.14C0.016,-0.14 0.011,-0.138 0.007,-0.134C0.002,-0.129 0,-0.124 0,-0.117L0,-0.023C0,-0.016 0.002,-0.011 0.007,-0.007C0.011,-0.002 0.016,-0 0.023,-0L0.477,-0C0.484,-0 0.489,-0.002 0.494,-0.007C0.498,-0.011 0.5,-0.016 0.5,-0.023L0.5,-0.117C0.5,-0.124 0.498,-0.129 0.494,-0.134C0.489,-0.138 0.484,-0.14 0.477,-0.14L0.318,-0.14L0.318,-0.49C0.318,-0.497 0.316,-0.502 0.312,-0.507C0.307,-0.511 0.302,-0.513 0.295,-0.513L0.114,-0.513ZM0.205,-0.7C0.198,-0.7 0.193,-0.698 0.189,-0.694C0.184,-0.689 0.182,-0.684 0.182,-0.677L0.182,-0.583C0.182,-0.576 0.184,-0.571 0.189,-0.567C0.193,-0.562 0.198,-0.56 0.205,-0.56L0.295,-0.56C0.302,-0.56 0.307,-0.562 0.312,-0.567C0.316,-0.571 0.318,-0.576 0.318,-0.583L0.318,-0.677C0.318,-0.684 0.316,-0.689 0.312,-0.694C0.307,-0.698 0.302,-0.7 0.295,-0.7L0.205,-0.7Z" style="fill:rgb(87,183,177);fill-rule:nonzero;stroke:rgb(61,106,86);stroke-width:0.02px;"/>
                </g>
                <g transform="matrix(175,0,0,175,1254.71,316.569)">
                    <path d="M0.386,-0.227C0.38,-0.227 0.375,-0.225 0.371,-0.221C0.366,-0.216 0.364,-0.211 0.364,-0.205L0.364,-0.136L0.136,-0.136L0.136,-0.364L0.364,-0.364L0.364,-0.295C0.364,-0.289 0.366,-0.284 0.371,-0.28C0.375,-0.275 0.38,-0.273 0.386,-0.273L0.477,-0.273C0.484,-0.273 0.489,-0.275 0.494,-0.28C0.498,-0.284 0.5,-0.289 0.5,-0.295L0.5,-0.477C0.5,-0.484 0.498,-0.489 0.494,-0.494C0.489,-0.498 0.484,-0.5 0.477,-0.5L0.023,-0.5C0.016,-0.5 0.011,-0.498 0.007,-0.494C0.002,-0.489 0,-0.484 0,-0.477L0,-0.023C0,-0.016 0.002,-0.011 0.007,-0.007C0.011,-0.002 0.016,-0 0.023,-0L0.477,-0C0.484,-0 0.489,-0.002 0.494,-0.007C0.498,-0.011 0.5,-0.016 0.5,-0.023L0.5,-0.205C0.5,-0.211 0.498,-0.216 0.494,-0.221C0.489,-0.225 0.484,-0.227 0.477,-0.227L0.386,-0.227Z" style="fill:rgb(87,183,177);fill-rule:nonzero;stroke:rgb(61,106,86);stroke-width:0.02px;"/>
                </g>
                <g transform="matrix(175,0,0,175,1350.09,316.569)">
                    <path d="M0.114,-0.7C0.107,-0.7 0.102,-0.698 0.098,-0.694C0.093,-0.689 0.091,-0.684 0.091,-0.677L0.091,-0.513L0.023,-0.513C0.016,-0.513 0.011,-0.511 0.007,-0.507C0.002,-0.502 0,-0.497 0,-0.49L0,-0.397C0,-0.39 0.002,-0.385 0.007,-0.38C0.011,-0.375 0.016,-0.373 0.023,-0.373L0.091,-0.373L0.091,-0.023C0.091,-0.016 0.093,-0.011 0.098,-0.007C0.102,-0.002 0.107,-0 0.114,-0L0.477,-0C0.484,-0 0.489,-0.002 0.494,-0.007C0.498,-0.011 0.5,-0.016 0.5,-0.023L0.5,-0.117C0.5,-0.124 0.498,-0.129 0.494,-0.134C0.489,-0.138 0.484,-0.14 0.477,-0.14L0.227,-0.14L0.227,-0.373L0.386,-0.373C0.393,-0.373 0.398,-0.375 0.403,-0.38C0.407,-0.385 0.409,-0.39 0.409,-0.397L0.409,-0.49C0.409,-0.497 0.407,-0.502 0.403,-0.507C0.398,-0.511 0.393,-0.513 0.386,-0.513L0.227,-0.513L0.227,-0.677C0.227,-0.684 0.225,-0.689 0.221,-0.694C0.216,-0.698 0.211,-0.7 0.205,-0.7L0.114,-0.7Z" style="fill:rgb(87,183,177);fill-rule:nonzero;stroke:rgb(61,106,86);stroke-width:0.02px;"/>
                </g>
                <g transform="matrix(175,0,0,175,1445.46,316.569)">
                    <path d="M0.114,-0.513C0.107,-0.513 0.102,-0.511 0.098,-0.507C0.093,-0.502 0.091,-0.497 0.091,-0.49L0.091,-0.397C0.091,-0.39 0.093,-0.385 0.098,-0.38C0.102,-0.375 0.107,-0.373 0.114,-0.373L0.182,-0.373L0.182,-0.14L0.023,-0.14C0.016,-0.14 0.011,-0.138 0.007,-0.134C0.002,-0.129 0,-0.124 0,-0.117L0,-0.023C0,-0.016 0.002,-0.011 0.007,-0.007C0.011,-0.002 0.016,-0 0.023,-0L0.477,-0C0.484,-0 0.489,-0.002 0.494,-0.007C0.498,-0.011 0.5,-0.016 0.5,-0.023L0.5,-0.117C0.5,-0.124 0.498,-0.129 0.494,-0.134C0.489,-0.138 0.484,-0.14 0.477,-0.14L0.318,-0.14L0.318,-0.49C0.318,-0.497 0.316,-0.502 0.312,-0.507C0.307,-0.511 0.302,-0.513 0.295,-0.513L0.114,-0.513ZM0.205,-0.7C0.198,-0.7 0.193,-0.698 0.189,-0.694C0.184,-0.689 0.182,-0.684 0.182,-0.677L0.182,-0.583C0.182,-0.576 0.184,-0.571 0.189,-0.567C0.193,-0.562 0.198,-0.56 0.205,-0.56L0.295,-0.56C0.302,-0.56 0.307,-0.562 0.312,-0.567C0.316,-0.571 0.318,-0.576 0.318,-0.583L0.318,-0.677C0.318,-0.684 0.316,-0.689 0.312,-0.694C0.307,-0.698 0.302,-0.7 0.295,-0.7L0.205,-0.7Z" style="fill:rgb(87,183,177);fill-rule:nonzero;stroke:rgb(61,106,86);stroke-width:0.02px;"/>
                </g>
                <g transform="matrix(175,0,0,175,1540.84,316.569)">
                    <path d="M0.023,-0.5C0.016,-0.5 0.011,-0.498 0.007,-0.494C0.002,-0.489 0,-0.484 0,-0.477L0,-0.023C0,-0.016 0.002,-0.011 0.007,-0.007C0.011,-0.002 0.016,-0 0.023,-0L0.477,-0C0.484,-0 0.489,-0.002 0.494,-0.007C0.498,-0.011 0.5,-0.016 0.5,-0.023L0.5,-0.477C0.5,-0.484 0.498,-0.489 0.494,-0.494C0.489,-0.498 0.484,-0.5 0.477,-0.5L0.023,-0.5ZM0.136,-0.364L0.364,-0.364L0.364,-0.136L0.136,-0.136L0.136,-0.364Z" style="fill:rgb(87,183,177);fill-rule:nonzero;stroke:rgb(61,106,86);stroke-width:0.02px;"/>
                </g>
                <g transform="matrix(175,0,0,175,1636.21,316.569)">
                    <path d="M0.386,-0L0.477,-0C0.484,-0 0.489,-0.002 0.494,-0.007C0.498,-0.011 0.5,-0.016 0.5,-0.023L0.5,-0.477C0.5,-0.484 0.498,-0.489 0.494,-0.494C0.489,-0.498 0.484,-0.5 0.477,-0.5L0.023,-0.5C0.016,-0.5 0.011,-0.498 0.007,-0.494C0.002,-0.489 0,-0.484 0,-0.477L0,-0.386C0,-0.38 0.002,-0.375 0.007,-0.371C0.011,-0.366 0.016,-0.364 0.023,-0.364L0.091,-0.364L0.091,-0.023C0.091,-0.016 0.093,-0.011 0.098,-0.007C0.102,-0.002 0.107,-0 0.114,-0L0.205,-0C0.211,-0 0.216,-0.002 0.221,-0.007C0.225,-0.011 0.227,-0.016 0.227,-0.023L0.227,-0.364L0.364,-0.364L0.364,-0.023C0.364,-0.016 0.366,-0.011 0.371,-0.007C0.375,-0.002 0.38,-0 0.386,-0Z" style="fill:rgb(87,183,177);fill-rule:nonzero;stroke:rgb(61,106,86);stroke-width:0.02px;"/>
                </g>
            </g>
        </g>
    </g>
</svg>
